# xmcd CD database file
#
# Track frame offsets:
#	150
#	11590
#	38052
#	58040
#	82465
#	106630
#
# Disc length: 1726 seconds
#
# Revision: 0
# Processed by: cddbd v1.5PL3 Copyright (c) Steve Scherf et al.
# Submitted via: CDex 1.50beta10
#
DISCID=4406bc06
DTITLE=Airdrop - 三宿Lesson
DYEAR=1900
DGENRE=Japanese Pop
TTITLE0=贋アカシア
TTITLE1=12:05
TTITLE2=ラブレター
TTITLE3=トンンルヲヌケテ
TTITLE4=Going
TTITLE5=冬の光
EXTD=
EXTT0=
EXTT1=
EXTT2=
EXTT3=
EXTT4=
EXTT5=
PLAYORDER=
